<?xml version="1.0" encoding="UTF-8"?>
<svg id="Layer_1" data-name="Layer 1" xmlns="http://www.w3.org/2000/svg" viewBox="0 0 255.94 225.39">
  <defs>
    <style>
      .cls-1 {
        fill: #6526f7;
        stroke-width: 0px;
      }
    </style>
  </defs>
  <path class="cls-1" d="m23.27,6.26c0,1.6-.61,3.21-1.83,4.43l-.95.95-8.85,8.86L2.78,11.63l-.95-.95C-.61,8.24-.61,4.28,1.83,1.83h0C4.28-.61,8.24-.61,10.69,1.83l.95.95.94-.95c2.45-2.45,6.41-2.45,8.86,0,1.22,1.22,1.83,2.82,1.83,4.43Z"/>
  <path class="cls-1" d="m69.8,6.26c0,1.6-.61,3.21-1.83,4.43l-.95.95-8.85,8.86-8.86-8.86-.95-.95c-2.44-2.44-2.44-6.41,0-8.85h0c2.44-2.45,6.41-2.45,8.85,0l.95.95.94-.95c2.45-2.45,6.41-2.45,8.86,0,1.22,1.22,1.83,2.82,1.83,4.43Z"/>
  <path class="cls-1" d="m116.34,6.26c0,1.6-.61,3.21-1.83,4.43l-.95.95-8.85,8.86-8.86-8.86-.95-.95c-2.44-2.44-2.44-6.41,0-8.85h0c2.44-2.45,6.41-2.45,8.85,0l.95.95.94-.95c2.45-2.45,6.41-2.45,8.86,0,1.22,1.22,1.83,2.82,1.83,4.43Z"/>
  <path class="cls-1" d="m162.87,6.26c0,1.6-.61,3.21-1.83,4.43l-.95.95-8.85,8.86-8.86-8.86-.95-.95c-2.44-2.44-2.44-6.41,0-8.85h0c2.44-2.45,6.41-2.45,8.85,0l.95.95.94-.95c2.45-2.45,6.41-2.45,8.86,0,1.22,1.22,1.83,2.82,1.83,4.43Z"/>
  <path class="cls-1" d="m209.41,6.26c0,1.6-.61,3.21-1.83,4.43l-.95.95-8.85,8.86-8.86-8.86-.95-.95c-2.44-2.44-2.44-6.41,0-8.85h0c2.44-2.45,6.41-2.45,8.85,0l.95.95.94-.95c2.45-2.45,6.41-2.45,8.86,0,1.22,1.22,1.83,2.82,1.83,4.43Z"/>
  <path class="cls-1" d="m255.94,6.26c0,1.6-.61,3.21-1.83,4.43l-.95.95-8.85,8.86-8.86-8.86-.95-.95c-2.44-2.44-2.44-6.41,0-8.85h0c2.44-2.45,6.41-2.45,8.85,0l.95.95.94-.95c2.45-2.45,6.41-2.45,8.86,0,1.22,1.22,1.83,2.82,1.83,4.43Z"/>
  <path class="cls-1" d="m23.27,47.24c0,1.6-.61,3.21-1.83,4.43l-.95.95-8.85,8.86-8.86-8.86-.95-.95c-2.44-2.44-2.44-6.41,0-8.85h0c2.44-2.45,6.41-2.45,8.85,0l.95.95.94-.95c2.45-2.45,6.41-2.45,8.86,0,1.22,1.22,1.83,2.82,1.83,4.43Z"/>
  <path class="cls-1" d="m69.8,47.24c0,1.6-.61,3.21-1.83,4.43l-.95.95-8.85,8.86-8.86-8.86-.95-.95c-2.44-2.44-2.44-6.41,0-8.85h0c2.44-2.45,6.41-2.45,8.85,0l.95.95.94-.95c2.45-2.45,6.41-2.45,8.86,0,1.22,1.22,1.83,2.82,1.83,4.43Z"/>
  <path class="cls-1" d="m116.34,47.24c0,1.6-.61,3.21-1.83,4.43l-.95.95-8.85,8.86-8.86-8.86-.95-.95c-2.44-2.44-2.44-6.41,0-8.85h0c2.44-2.45,6.41-2.45,8.85,0l.95.95.94-.95c2.45-2.45,6.41-2.45,8.86,0,1.22,1.22,1.83,2.82,1.83,4.43Z"/>
  <path class="cls-1" d="m162.87,47.24c0,1.6-.61,3.21-1.83,4.43l-.95.95-8.85,8.86-8.86-8.86-.95-.95c-2.44-2.44-2.44-6.41,0-8.85h0c2.44-2.45,6.41-2.45,8.85,0l.95.95.94-.95c2.45-2.45,6.41-2.45,8.86,0,1.22,1.22,1.83,2.82,1.83,4.43Z"/>
  <path class="cls-1" d="m209.41,47.24c0,1.6-.61,3.21-1.83,4.43l-.95.95-8.85,8.86-8.86-8.86-.95-.95c-2.44-2.44-2.44-6.41,0-8.85h0c2.44-2.45,6.41-2.45,8.85,0l.95.95.94-.95c2.45-2.45,6.41-2.45,8.86,0,1.22,1.22,1.83,2.82,1.83,4.43Z"/>
  <path class="cls-1" d="m255.94,47.24c0,1.6-.61,3.21-1.83,4.43l-.95.95-8.85,8.86-8.86-8.86-.95-.95c-2.44-2.44-2.44-6.41,0-8.85h0c2.44-2.45,6.41-2.45,8.85,0l.95.95.94-.95c2.45-2.45,6.41-2.45,8.86,0,1.22,1.22,1.83,2.82,1.83,4.43Z"/>
  <path class="cls-1" d="m23.27,88.22c0,1.6-.61,3.21-1.83,4.43l-.95.95-8.85,8.86-8.86-8.86-.95-.95c-2.44-2.44-2.44-6.41,0-8.85h0c2.44-2.45,6.41-2.45,8.85,0l.95.95.94-.95c2.45-2.45,6.41-2.45,8.86,0,1.22,1.22,1.83,2.82,1.83,4.43Z"/>
  <path class="cls-1" d="m69.8,88.22c0,1.6-.61,3.21-1.83,4.43l-.95.95-8.85,8.86-8.86-8.86-.95-.95c-2.44-2.44-2.44-6.41,0-8.85h0c2.44-2.45,6.41-2.45,8.85,0l.95.95.94-.95c2.45-2.45,6.41-2.45,8.86,0,1.22,1.22,1.83,2.82,1.83,4.43Z"/>
  <path class="cls-1" d="m116.34,88.22c0,1.6-.61,3.21-1.83,4.43l-.95.95-8.85,8.86-8.86-8.86-.95-.95c-2.44-2.44-2.44-6.41,0-8.85h0c2.44-2.45,6.41-2.45,8.85,0l.95.95.94-.95c2.45-2.45,6.41-2.45,8.86,0,1.22,1.22,1.83,2.82,1.83,4.43Z"/>
  <path class="cls-1" d="m162.87,88.22c0,1.6-.61,3.21-1.83,4.43l-.95.95-8.85,8.86-8.86-8.86-.95-.95c-2.44-2.44-2.44-6.41,0-8.85h0c2.44-2.45,6.41-2.45,8.85,0l.95.95.94-.95c2.45-2.45,6.41-2.45,8.86,0,1.22,1.22,1.83,2.82,1.83,4.43Z"/>
  <path class="cls-1" d="m209.41,88.22c0,1.6-.61,3.21-1.83,4.43l-.95.95-8.85,8.86-8.86-8.86-.95-.95c-2.44-2.44-2.44-6.41,0-8.85h0c2.44-2.45,6.41-2.45,8.85,0l.95.95.94-.95c2.45-2.45,6.41-2.45,8.86,0,1.22,1.22,1.83,2.82,1.83,4.43Z"/>
  <path class="cls-1" d="m255.94,88.22c0,1.6-.61,3.21-1.83,4.43l-.95.95-8.85,8.86-8.86-8.86-.95-.95c-2.44-2.44-2.44-6.41,0-8.85h0c2.44-2.45,6.41-2.45,8.85,0l.95.95.94-.95c2.45-2.45,6.41-2.45,8.86,0,1.22,1.22,1.83,2.82,1.83,4.43Z"/>
  <path class="cls-1" d="m23.27,129.2c0,1.6-.61,3.21-1.83,4.43l-.95.95-8.85,8.86-8.86-8.86-.95-.95c-2.44-2.44-2.44-6.41,0-8.85h0c2.44-2.45,6.41-2.45,8.85,0l.95.95.94-.95c2.45-2.45,6.41-2.45,8.86,0,1.22,1.22,1.83,2.82,1.83,4.43Z"/>
  <path class="cls-1" d="m69.8,129.2c0,1.6-.61,3.21-1.83,4.43l-.95.95-8.85,8.86-8.86-8.86-.95-.95c-2.44-2.44-2.44-6.41,0-8.85h0c2.44-2.45,6.41-2.45,8.85,0l.95.95.94-.95c2.45-2.45,6.41-2.45,8.86,0,1.22,1.22,1.83,2.82,1.83,4.43Z"/>
  <path class="cls-1" d="m116.34,129.2c0,1.6-.61,3.21-1.83,4.43l-.95.95-8.85,8.86-8.86-8.86-.95-.95c-2.44-2.44-2.44-6.41,0-8.85h0c2.44-2.45,6.41-2.45,8.85,0l.95.95.94-.95c2.45-2.45,6.41-2.45,8.86,0,1.22,1.22,1.83,2.82,1.83,4.43Z"/>
  <path class="cls-1" d="m162.87,129.2c0,1.6-.61,3.21-1.83,4.43l-.95.95-8.85,8.86-8.86-8.86-.95-.95c-2.44-2.44-2.44-6.41,0-8.85h0c2.44-2.45,6.41-2.45,8.85,0l.95.95.94-.95c2.45-2.45,6.41-2.45,8.86,0,1.22,1.22,1.83,2.82,1.83,4.43Z"/>
  <path class="cls-1" d="m209.41,129.2c0,1.6-.61,3.21-1.83,4.43l-.95.95-8.85,8.86-8.86-8.86-.95-.95c-2.44-2.44-2.44-6.41,0-8.85h0c2.44-2.45,6.41-2.45,8.85,0l.95.95.94-.95c2.45-2.45,6.41-2.45,8.86,0,1.22,1.22,1.83,2.82,1.83,4.43Z"/>
  <path class="cls-1" d="m255.94,129.2c0,1.6-.61,3.21-1.83,4.43l-.95.95-8.85,8.86-8.86-8.86-.95-.95c-2.44-2.44-2.44-6.41,0-8.85h0c2.44-2.45,6.41-2.45,8.85,0l.95.95.94-.95c2.45-2.45,6.41-2.45,8.86,0,1.22,1.22,1.83,2.82,1.83,4.43Z"/>
  <path class="cls-1" d="m23.27,170.18c0,1.6-.61,3.21-1.83,4.43l-.95.95-8.85,8.86-8.86-8.86-.95-.95c-2.44-2.44-2.44-6.41,0-8.85h0c2.44-2.45,6.41-2.45,8.85,0l.95.95.94-.95c2.45-2.45,6.41-2.45,8.86,0,1.22,1.22,1.83,2.82,1.83,4.43Z"/>
  <path class="cls-1" d="m69.8,170.18c0,1.6-.61,3.21-1.83,4.43l-.95.95-8.85,8.86-8.86-8.86-.95-.95c-2.44-2.44-2.44-6.41,0-8.85h0c2.44-2.45,6.41-2.45,8.85,0l.95.95.94-.95c2.45-2.45,6.41-2.45,8.86,0,1.22,1.22,1.83,2.82,1.83,4.43Z"/>
  <path class="cls-1" d="m116.34,170.18c0,1.6-.61,3.21-1.83,4.43l-.95.95-8.85,8.86-8.86-8.86-.95-.95c-2.44-2.44-2.44-6.41,0-8.85h0c2.44-2.45,6.41-2.45,8.85,0l.95.95.94-.95c2.45-2.45,6.41-2.45,8.86,0,1.22,1.22,1.83,2.82,1.83,4.43Z"/>
  <path class="cls-1" d="m162.87,170.18c0,1.6-.61,3.21-1.83,4.43l-.95.95-8.85,8.86-8.86-8.86-.95-.95c-2.44-2.44-2.44-6.41,0-8.85h0c2.44-2.45,6.41-2.45,8.85,0l.95.95.94-.95c2.45-2.45,6.41-2.45,8.86,0,1.22,1.22,1.83,2.82,1.83,4.43Z"/>
  <path class="cls-1" d="m209.41,170.18c0,1.6-.61,3.21-1.83,4.43l-.95.95-8.85,8.86-8.86-8.86-.95-.95c-2.44-2.44-2.44-6.41,0-8.85h0c2.44-2.45,6.41-2.45,8.85,0l.95.95.94-.95c2.45-2.45,6.41-2.45,8.86,0,1.22,1.22,1.83,2.82,1.83,4.43Z"/>
  <path class="cls-1" d="m255.94,170.18c0,1.6-.61,3.21-1.83,4.43l-.95.95-8.85,8.86-8.86-8.86-.95-.95c-2.44-2.44-2.44-6.41,0-8.85h0c2.44-2.45,6.41-2.45,8.85,0l.95.95.94-.95c2.45-2.45,6.41-2.45,8.86,0,1.22,1.22,1.83,2.82,1.83,4.43Z"/>
  <path class="cls-1" d="m23.27,211.16c0,1.6-.61,3.21-1.83,4.43l-.95.95-8.85,8.86-8.86-8.86-.95-.95c-2.44-2.44-2.44-6.41,0-8.85h0c2.44-2.45,6.41-2.45,8.85,0l.95.95.94-.95c2.45-2.45,6.41-2.45,8.86,0,1.22,1.22,1.83,2.82,1.83,4.43Z"/>
  <path class="cls-1" d="m69.8,211.16c0,1.6-.61,3.21-1.83,4.43l-.95.95-8.85,8.86-8.86-8.86-.95-.95c-2.44-2.44-2.44-6.41,0-8.85h0c2.44-2.45,6.41-2.45,8.85,0l.95.95.94-.95c2.45-2.45,6.41-2.45,8.86,0,1.22,1.22,1.83,2.82,1.83,4.43Z"/>
  <path class="cls-1" d="m116.34,211.16c0,1.6-.61,3.21-1.83,4.43l-.95.95-8.85,8.86-8.86-8.86-.95-.95c-2.44-2.44-2.44-6.41,0-8.85h0c2.44-2.45,6.41-2.45,8.85,0l.95.95.94-.95c2.45-2.45,6.41-2.45,8.86,0,1.22,1.22,1.83,2.82,1.83,4.43Z"/>
  <path class="cls-1" d="m162.87,211.16c0,1.6-.61,3.21-1.83,4.43l-.95.95-8.85,8.86-8.86-8.86-.95-.95c-2.44-2.44-2.44-6.41,0-8.85h0c2.44-2.45,6.41-2.45,8.85,0l.95.95.94-.95c2.45-2.45,6.41-2.45,8.86,0,1.22,1.22,1.83,2.82,1.83,4.43Z"/>
  <path class="cls-1" d="m209.41,211.16c0,1.6-.61,3.21-1.83,4.43l-.95.95-8.85,8.86-8.86-8.86-.95-.95c-2.44-2.44-2.44-6.41,0-8.85h0c2.44-2.45,6.41-2.45,8.85,0l.95.95.94-.95c2.45-2.45,6.41-2.45,8.86,0,1.22,1.22,1.83,2.82,1.83,4.43Z"/>
  <path class="cls-1" d="m255.94,211.16c0,1.6-.61,3.21-1.83,4.43l-.95.95-8.85,8.86-8.86-8.86-.95-.95c-2.44-2.44-2.44-6.41,0-8.85h0c2.44-2.45,6.41-2.45,8.85,0l.95.95.94-.95c2.45-2.45,6.41-2.45,8.86,0,1.22,1.22,1.83,2.82,1.83,4.43Z"/>
</svg>