<?xml version="1.0" encoding="UTF-8"?>
<svg id="Layer_1" data-name="Layer 1" xmlns="http://www.w3.org/2000/svg" viewBox="0 0 709.8 55.7">
  <defs>
    <style>
      .cls-1 {
      fill: none;
      stroke: #fff;
      }
    </style>
  </defs>
  <path class="cls-1"
    d="m25.58,30.41v24.32h-6.04v-22.71L.88.66h6.88l11.78,19.81,5.66,9.41,12.62-24.47c.41-.77.59-1.44.54-2.03-.05-.59-.23-1.07-.54-1.45-.31-.38-.68-.67-1.11-.88-.43-.2-.83-.33-1.19-.38h8.64c-.51.05-1.05.24-1.61.57-.56.33-1.11.71-1.64,1.15-.54.43-.99.89-1.38,1.38-.38.49-.65.91-.8,1.26l-13.15,25.39Z" />
  <path class="cls-1"
    d="m58.24,1.5c3.57-1.02,7.12-1.26,10.67-.73,3.54.54,6.81,1.68,9.79,3.44,2.98,1.76,5.58,4.07,7.8,6.92,2.22,2.86,3.79,6.09,4.7,9.71,1.02,3.57,1.27,7.13.77,10.67-.51,3.54-1.63,6.83-3.37,9.87-1.73,3.03-4.01,5.66-6.84,7.88-2.83,2.22-6.05,3.81-9.67,4.78-3.62,1.02-7.19,1.27-10.71.77s-6.77-1.63-9.75-3.37c-2.98-1.73-5.6-4.03-7.84-6.88-2.24-2.85-3.85-6.12-4.82-9.79-.97-3.62-1.19-7.21-.65-10.78.54-3.57,1.68-6.86,3.44-9.87,1.76-3.01,4.04-5.62,6.84-7.84,2.8-2.22,6.02-3.81,9.64-4.78Zm.08.61c-3.26.87-5.93,2.41-7.99,4.63-2.07,2.22-3.61,4.81-4.63,7.76-1.02,2.96-1.56,6.08-1.61,9.37-.05,3.29.31,6.39,1.07,9.29.77,2.91,1.99,5.76,3.67,8.57,1.68,2.8,3.7,5.21,6.04,7.23,2.34,2.01,4.97,3.49,7.88,4.44,2.91.94,5.96.98,9.18.12,3.26-.82,5.94-2.36,8.03-4.63,2.09-2.27,3.66-4.88,4.7-7.84,1.04-2.96,1.61-6.08,1.68-9.37s-.27-6.39-1.03-9.29c-.76-2.96-1.99-5.84-3.67-8.64-1.68-2.8-3.71-5.23-6.08-7.27-2.37-2.04-5.02-3.5-7.95-4.4-2.93-.89-6.03-.88-9.29.04Z" />
  <path class="cls-1"
    d="m103.67,35.15c0,3.16.6,6.09,1.8,8.8,1.2,2.7,2.83,4.91,4.89,6.61,2.06,1.71,4.47,2.83,7.23,3.37,2.75.54,5.66.22,8.72-.96,3.67-1.33,6.54-3.52,8.6-6.58s3.1-6.81,3.1-11.24c0-2.85-.04-5.95-.12-9.29-.08-3.34-.29-6.6-.65-9.79-.36-3.19-.88-6.14-1.57-8.87-.69-2.73-1.67-4.91-2.94-6.54h5.96v34.49c0,4.28-1.03,8.06-3.1,11.32s-5.11,5.63-9.14,7.11c-3.42,1.22-6.84,1.66-10.29,1.3-3.44-.36-6.54-1.36-9.29-3.02-2.75-1.66-4.98-3.91-6.69-6.77-1.71-2.85-2.56-6.17-2.56-9.94V.66h6.04v34.49Z" />
  <path class="cls-1"
    d="m193.91,34.01c-3.26.31-5.94.98-8.03,2.03s-3.81,2.27-5.16,3.67c-1.35,1.4-2.41,2.91-3.17,4.51-.76,1.61-1.45,3.1-2.06,4.47-.36.97-.73,1.86-1.11,2.68-.38.82-.8,1.5-1.26,2.07s-.99,1.01-1.61,1.34-1.35.47-2.22.42c-.26-.05-.46-.09-.61-.12-.15-.03-.36-.17-.61-.42-2.09-.92-2.93-3.14-2.52-6.65.2-1.68.57-3.58,1.11-5.7s1.26-4.4,2.18-6.84c1.02-2.75,2.19-5.65,3.52-8.68,1.33-3.03,2.73-6.07,4.21-9.1,1.48-3.03,2.98-6,4.51-8.91,1.53-2.91,3.03-5.58,4.51-8.03h.54l22.87,53.99h-6.42l-8.64-20.73Zm-11.47-26.69c-1.17,2.24-2.36,4.56-3.56,6.96-1.2,2.4-2.37,4.81-3.52,7.23-1.15,2.42-2.23,4.83-3.25,7.23-1.02,2.4-1.94,4.69-2.75,6.88-.92,2.45-1.64,4.72-2.18,6.81-.54,2.09-.91,3.95-1.11,5.58-.1,1.58.01,2.92.34,4.02.33,1.1.96,1.8,1.87,2.1.25.1.45.17.57.19.13.03.29.09.5.19,1.53.1,2.68-.42,3.44-1.57s1.45-2.61,2.07-4.4c.61-1.43,1.32-2.96,2.14-4.59.81-1.63,1.9-3.18,3.25-4.63,1.35-1.45,3.1-2.72,5.24-3.79,2.14-1.07,4.87-1.76,8.18-2.07l-11.24-26.16Z" />
  <path class="cls-1"
    d="m235.98,24.91c1.99.46,3.67,1.25,5.05,2.37,1.38,1.12,2.59,2.45,3.63,3.98,1.04,1.53,1.95,3.2,2.71,5.01.77,1.81,1.53,3.61,2.29,5.39.71,1.68,1.44,3.28,2.18,4.78s1.54,2.83,2.41,3.98c.87,1.15,1.81,2.05,2.83,2.71,1.02.66,2.17,1,3.44,1v.61c-3.47,0-6.3-.42-8.49-1.26-2.19-.84-3.93-1.95-5.2-3.33-1.27-1.38-2.21-2.96-2.79-4.74-.59-1.78-1.05-3.59-1.38-5.43-.33-1.84-.64-3.65-.92-5.43-.28-1.78-.73-3.37-1.34-4.74-.61-1.38-1.52-2.49-2.72-3.33-1.2-.84-2.87-1.26-5.01-1.26-3.88,0-6.99-1.84-9.33-5.51-1.33-2.14-2.32-4.77-2.98-7.88v42.9h-6.04V.66h13.46c2.8,0,5.46.22,7.95.65,2.5.43,4.68,1.14,6.54,2.1,1.86.97,3.33,2.22,4.4,3.75,1.07,1.53,1.61,3.39,1.61,5.58,0,1.89-.33,3.54-.99,4.97-.66,1.43-1.56,2.64-2.68,3.63-1.12.99-2.42,1.78-3.9,2.37-1.48.59-3.06.98-4.74,1.19Zm6.27-12.16c0-2.19-.41-4.02-1.22-5.47-.82-1.45-1.89-2.63-3.21-3.52-1.33-.89-2.87-1.53-4.63-1.91-1.76-.38-3.56-.57-5.39-.57h-7.42v4.74c0,2.8.32,5.3.96,7.5.64,2.19,1.49,4.13,2.56,5.81,1.07,1.58,2.36,2.87,3.86,3.86s3.15,1.49,4.93,1.49h.54c1.22-.05,2.38-.33,3.48-.84,1.1-.51,2.05-1.25,2.87-2.22.81-.97,1.46-2.19,1.95-3.67.48-1.48.73-3.21.73-5.2Z" />
  <path class="cls-1"
    d="m271.69,54.12h12.92c3.37,0,6.09-.82,8.18-2.45,2.09-1.63,3.82-4.38,5.2-8.26l-1.76,11.32h-30.36V.74h30.82v6.12c-1.38-1.27-2.69-2.29-3.94-3.06-1.25-.77-2.58-1.33-3.98-1.68-1.4-.36-2.97-.59-4.7-.69-1.73-.1-3.77-.15-6.12-.15h-6.27v12.39c0,2.6.33,4.73.99,6.39.66,1.66,1.66,2.94,2.98,3.86,1.32.92,2.98,1.54,4.97,1.87,1.99.33,4.28.5,6.88.5v6.04c-1.12-1.27-2.47-2.27-4.05-2.98-1.58-.71-3.15-1.49-4.7-2.33-1.56-.84-2.98-1.87-4.28-3.1s-2.23-2.96-2.79-5.2v35.41Z" />
  <path class="cls-1"
    d="m353.3,34.01c-3.26.31-5.94.98-8.03,2.03s-3.81,2.27-5.16,3.67c-1.35,1.4-2.41,2.91-3.17,4.51-.76,1.61-1.45,3.1-2.06,4.47-.36.97-.73,1.86-1.11,2.68-.38.82-.8,1.5-1.26,2.07s-.99,1.01-1.61,1.34-1.35.47-2.22.42c-.26-.05-.46-.09-.61-.12-.15-.03-.36-.17-.61-.42-2.09-.92-2.93-3.14-2.52-6.65.2-1.68.57-3.58,1.11-5.7s1.26-4.4,2.18-6.84c1.02-2.75,2.19-5.65,3.52-8.68,1.33-3.03,2.73-6.07,4.21-9.1,1.48-3.03,2.98-6,4.51-8.91,1.53-2.91,3.03-5.58,4.51-8.03h.54l22.87,53.99h-6.42l-8.64-20.73Zm-11.47-26.69c-1.17,2.24-2.36,4.56-3.56,6.96-1.2,2.4-2.37,4.81-3.52,7.23-1.15,2.42-2.23,4.83-3.25,7.23-1.02,2.4-1.94,4.69-2.75,6.88-.92,2.45-1.64,4.72-2.18,6.81-.54,2.09-.91,3.95-1.11,5.58-.1,1.58.01,2.92.34,4.02.33,1.1.96,1.8,1.87,2.1.25.1.45.17.57.19.13.03.29.09.5.19,1.53.1,2.68-.42,3.44-1.57s1.45-2.61,2.07-4.4c.61-1.43,1.32-2.96,2.14-4.59.81-1.63,1.9-3.18,3.25-4.63,1.35-1.45,3.1-2.72,5.24-3.79,2.14-1.07,4.87-1.76,8.18-2.07l-11.24-26.16Z" />
  <path class="cls-1"
    d="m404.23,54.73h-30.52V.74h6.12v53.38h12.93c3.31,0,6-.82,8.07-2.45s3.81-4.38,5.24-8.26l-1.84,11.32Z" />
  <path class="cls-1"
    d="m441.94,54.73h-30.52V.74h6.12v53.38h12.93c3.31,0,6-.82,8.07-2.45s3.81-4.38,5.24-8.26l-1.84,11.32Z" />
  <path class="cls-1"
    d="m516.81.74v53.99h-5.81V2.57c-2.55,1.07-4.73,2.78-6.54,5.12-1.81,2.35-3.33,5.06-4.55,8.15-1.23,3.08-2.19,6.41-2.91,9.98-.71,3.57-1.26,7.11-1.64,10.63-.38,3.52-.63,6.86-.73,10.02-.1,3.16-.15,5.92-.15,8.26h-.77l-20.65-47.57-2.14-5.05v52.62h-.46V.74h6.35l17.44,40.3c.25-2.91.61-5.93,1.07-9.06.46-3.14,1.07-6.19,1.84-9.18s1.71-5.81,2.83-8.49c1.12-2.68,2.49-5.02,4.09-7.04,1.61-2.01,3.45-3.61,5.55-4.78,2.09-1.17,4.49-1.76,7.19-1.76Z" />
  <path class="cls-1"
    d="m546.87,30.41v24.32h-6.04v-22.71l-18.66-31.36h6.88l11.78,19.81,5.66,9.41,12.62-24.47c.41-.77.59-1.44.54-2.03-.05-.59-.23-1.07-.54-1.45-.3-.38-.68-.67-1.11-.88-.43-.2-.83-.33-1.19-.38h8.64c-.51.05-1.05.24-1.61.57-.56.33-1.11.71-1.65,1.15-.54.43-.99.89-1.38,1.38-.38.49-.65.91-.8,1.26l-13.15,25.39Z" />
  <path class="cls-1"
    d="m622.66,54.73h-30.52V.74h6.12v53.38h12.93c3.31,0,6-.82,8.07-2.45s3.81-4.38,5.24-8.26l-1.84,11.32Z" />
  <path class="cls-1" d="m629.85.74h5.81v53.99h-5.81V.74Z" />
  <path class="cls-1"
    d="m646.75,54.73h-5.81V.74h30.82v6.12c-1.33-1.27-2.61-2.29-3.86-3.06-1.25-.77-2.59-1.33-4.01-1.68-1.43-.36-3.02-.59-4.78-.69-1.76-.1-3.81-.15-6.16-.15h-6.19v12.39c0,2.6.33,4.73.99,6.39.66,1.66,1.67,2.94,3.02,3.86,1.35.92,3.02,1.54,5.01,1.87,1.99.33,4.31.5,6.96.5v6.04c-1.17-1.27-2.55-2.27-4.13-2.98-1.58-.71-3.16-1.49-4.74-2.33-1.58-.84-3.02-1.87-4.32-3.1s-2.23-2.96-2.79-5.2v36.02Z" />
  <path class="cls-1"
    d="m683,54.12h12.92c3.37,0,6.09-.82,8.18-2.45,2.09-1.63,3.83-4.38,5.2-8.26l-1.76,11.32h-30.36V.74h30.82v6.12c-1.38-1.27-2.69-2.29-3.94-3.06-1.25-.77-2.58-1.33-3.98-1.68-1.4-.36-2.97-.59-4.7-.69-1.73-.1-3.77-.15-6.12-.15h-6.27v12.39c0,2.6.33,4.73.99,6.39.66,1.66,1.66,2.94,2.98,3.86,1.32.92,2.98,1.54,4.97,1.87,1.99.33,4.28.5,6.88.5v6.04c-1.12-1.27-2.47-2.27-4.05-2.98-1.58-.71-3.15-1.49-4.7-2.33-1.56-.84-2.98-1.87-4.28-3.1s-2.23-2.96-2.79-5.2v35.41Z" />
</svg>